<?xml version="1.0" encoding="UTF-8"?>
<svg id="_レイヤー_2" data-name="レイヤー 2" xmlns="http://www.w3.org/2000/svg" xmlns:xlink="http://www.w3.org/1999/xlink" viewBox="0 0 282.47 172.45">
  <defs>
    <style>
      .cls-1 {
        fill: url(#_名称未設定グラデーション_822);
      }

      .cls-1, .cls-2, .cls-3, .cls-4, .cls-5 {
        stroke-width: 0px;
      }

      .cls-2 {
        fill: url(#_名称未設定グラデーション_821);
      }

      .cls-3 {
        fill: url(#_名称未設定グラデーション_818);
      }

      .cls-4 {
        fill: url(#_名称未設定グラデーション_818-2);
      }

      .cls-5 {
        fill: #231815;
      }
    </style>
    <linearGradient id="_名称未設定グラデーション_818" data-name="名称未設定グラデーション 818" x1="-2139.18" y1="5091.86" x2="-2038.45" y2="5144.56" gradientTransform="translate(4993.15 -2401.97) rotate(40.82)" gradientUnits="userSpaceOnUse">
      <stop offset="0" stop-color="#444592"/>
      <stop offset="1" stop-color="#73c0cc"/>
    </linearGradient>
    <linearGradient id="_名称未設定グラデーション_818-2" data-name="名称未設定グラデーション 818" x1="-2151.75" y1="5118.72" x2="-2038.06" y2="5118.72" xlink:href="#_名称未設定グラデーション_818"/>
    <linearGradient id="_名称未設定グラデーション_822" data-name="名称未設定グラデーション 822" x1="-2166.6" y1="5079.22" x2="-2054.48" y2="5070.28" gradientTransform="translate(4993.15 -2401.97) rotate(40.82)" gradientUnits="userSpaceOnUse">
      <stop offset=".04" stop-color="#444592"/>
      <stop offset="1" stop-color="#73c0cc"/>
    </linearGradient>
    <linearGradient id="_名称未設定グラデーション_821" data-name="名称未設定グラデーション 821" x1="-2189.1" y1="5075.03" x2="-2076.66" y2="5075.03" gradientTransform="translate(4993.15 -2401.97) rotate(40.82)" gradientUnits="userSpaceOnUse">
      <stop offset=".39" stop-color="#444592"/>
      <stop offset="1" stop-color="#73c0cc"/>
    </linearGradient>
  </defs>
  <g id="_レイヤー_1-2" data-name="レイヤー 1">
    <g>
      <g>
        <path class="cls-3" d="m51.45,172.39c-13.96-.69-24.17-7.24-27.28-9.39-15.47-10.69-20.07-26.28-21.86-32.69-6.71-24.04,3.13-44.04,5.72-49.1,8.76-17.11,22-25.52,29.94-30.55,9.43-5.98,21.84-13.86,38.22-12.75,10.75.73,18.84,5.03,25.39,8.51,11.23,5.97,18.93,13.27,23.57,18.38-2.87-1.95-7.71-4.67-14.18-5.81-13.03-2.29-23.28,3.51-27.27,5.84-4.04,2.37-17.25,10.94-20.69,26.7-.7,3.19-2.15,10.26,1,18.02,1.03,2.54,3.49,8.6,9.75,11.77,5.88,2.98,11.67,1.69,15.93.74,11.09-2.48,17.94-10.13,20.43-12.92,1.65-1.85,2.87-3.52,3.68-4.71-.07,4.22-.45,10.46-2.27,17.24-3.94,14.67-11.89,24.85-17.24,30.47-6.32,6.63-16.59,17.4-33.69,19.82-3.19.45-6.25.56-9.14.42Z"/>
        <path class="cls-4" d="m51.45,172.39c-13.96-.69-24.17-7.24-27.28-9.39-15.47-10.69-20.07-26.28-21.86-32.69-6.71-24.04,3.13-44.04,5.72-49.1,8.76-17.11,22-25.52,29.94-30.55,9.43-5.98,21.84-13.86,38.22-12.75,10.75.73,18.84,5.03,25.39,8.51,11.23,5.97,18.93,13.27,23.57,18.38-5.38-2.93-16.71-9.47-22.84-10.82-11.03-2.43-21.88-1.81-37.44,6.13-13.4,6.84-35.04,25.05-39.29,38.65-5.83,18.63-.9,35.76,5.03,41.68,11.65,11.64,21.83,14.68,32.03,13.39,4.24-.54,19.41.03,31.92-16.41,7.32-9.62,18.49-31.51,19.25-32.97-.07,4.22-.45,10.46-2.27,17.24-3.94,14.67-11.89,24.85-17.24,30.47-6.32,6.63-16.59,17.4-33.69,19.82-3.19.45-6.25.56-9.14.42Z"/>
        <path class="cls-1" d="m47.2,4.48C48.76,2.62,50.25.99,51.11,0c-.29,10.98,1.4,19.3,1.77,21.07,1.63,7.72,2.44,11.58,5.41,16.11,3.82,5.83,8.76,9.08,12.26,11.38,5.67,3.73,6.82,2.94,13.86,7.24,4.54,2.77,8.34,5.1,11.66,8.88,5.27,6.03,6.64,12.72,7.67,18.07,2.58,13.42-.41,24.95-2.77,31.53-.33-1.52-1.3-4.03-2.09-6.44-1.14-3.47-3.04-9.13-7.22-14.75-4.32-5.82-9.14-9-11.79-10.71-8.15-5.27-11.32-4-19.63-8.04-4.24-2.06-13.43-6.53-19.25-16.06-6.64-10.87-5.31-22.47-4.69-27.95.98-8.56,3.98-15.33,6.3-19.51,1.12-2.02,2.9-4.31,4.6-6.34Z"/>
        <path class="cls-2" d="m50.92.36c-2.14,4.33-7.11,16.16-4.38,28.65.15.68,3.55,15.31,16.05,24.51,4.64,3.42,8.04,4.25,19.5,11.98.63.43,5.51,3.72,7.36,5.18,3.68,2.9,15,16.95,11.52,43.61,9.4-25.61.11-43.24-3.94-48.67-4.22-5.66-10.09-8.6-16.34-11.91-7.29-3.87-5.45-2.05-11.13-5.78-3.5-2.3-7.46-4.9-11.28-10.73-2.97-4.54-3.79-8.4-5.41-16.11-.37-1.77-1.58-6.47-1.77-21.07-.06.11-.12.23-.18.36Z"/>
      </g>
      <g>
        <path class="cls-5" d="m132.03,107.29h-5.87c-.14,0-.25-.13-.22-.27l.64-3.11c.07-.34.37-.59.72-.59h17.49c.15,0,.26.13.23.28l-.64,3.12c-.07.33-.36.57-.7.57h-5.34c-.46,0-.86.33-.95.78l-3.16,15.7c-.07.34-.37.58-.72.58h-3.99c-.15,0-.26-.14-.23-.29l3.23-16.18c.06-.31-.17-.59-.49-.59Z"/>
        <path class="cls-5" d="m156.22,107.96c.16,0,.28.14.25.3l-.79,4.03c-.42-.03-.69-.06-1.08-.06-2.77,0-4.55,1.29-5.15,4.33l-1.45,7.22c-.07.34-.37.59-.72.59h-3.83c-.14,0-.25-.13-.22-.27l3.01-15.1c.09-.46.49-.78.96-.78h3.66l-.39,1.92c1.39-1.5,3.28-2.11,5.74-2.16Z"/>
        <path class="cls-5" d="m175.52,108.19h-3.79c-.34,0-.64.24-.7.58l-.31,1.61c-1.06-1.68-2.92-2.43-5.27-2.43-5,0-8.95,3.97-8.95,9.4,0,4.59,3.22,7.24,6.99,7.24,1.99,0,3.68-.66,4.97-1.83l-.3,1.59h3.86c.35,0,.64-.24.71-.58l3.05-15.26c.03-.16-.09-.32-.26-.32Zm-10.69,12.52c-2.4,0-3.79-1.38-3.79-3.57,0-3.15,2.03-5.32,4.86-5.32,2.4,0,3.79,1.38,3.79,3.57,0,3.15-2.03,5.32-4.86,5.32Z"/>
        <path class="cls-5" d="m195.51,113.45c0,.6-.06,1.26-.21,1.95l-1.65,8.17c-.09.45-.49.77-.95.77h-3.34c-.29,0-.52-.27-.46-.56l1.64-8.09c.09-.39.12-.78.12-1.11,0-1.65-.9-2.58-2.77-2.58-2.38,0-4.04,1.32-4.61,4.14l-1.47,7.4c-.09.46-.5.8-.97.8h-3.29c-.31,0-.54-.28-.48-.58l2.95-14.81c.09-.45.48-.77.94-.77h3.67l-.36,1.74c1.48-1.35,3.34-1.98,5.33-1.98,3.55,0,5.9,1.92,5.9,5.5Z"/>
        <path class="cls-5" d="m196.95,122.52l1.14-2.14c.24-.45.79-.64,1.25-.42,1.36.67,3.15,1.08,4.85,1.08,2.2,0,3.16-.6,3.16-1.56,0-2.28-8.59-.39-8.59-5.86,0-3.63,3.41-5.68,8.13-5.68,2.05,0,4.1.42,5.56,1.13.25.12.33.42.21.67l-1.02,2.07c-.23.46-.78.69-1.25.48-1.31-.6-2.74-.8-3.98-.8-2.17,0-3.13.72-3.13,1.59,0,2.37,8.56.48,8.56,5.86,0,3.69-3.5,5.64-8.17,5.64-2.62,0-5.12-.61-6.56-1.45-.21-.13-.28-.4-.16-.62Z"/>
        <path class="cls-5" d="m233.11,115.19c0,5.44-3.95,9.4-8.98,9.4-2.13,0-3.84-.62-4.92-1.96-.13-.16-.38-.12-.42.09l-1.37,6.87c-.07.34-.37.59-.72.59h-3.67c-.22,0-.39-.2-.34-.42l4.2-21c.07-.33.35-.56.69-.56h3.88l-.33,1.59c1.3-1.17,2.98-1.83,4.97-1.83,3.77,0,7.02,2.64,7.02,7.24Zm-4.76.21c0-2.19-1.36-3.57-3.71-3.57-2.74,0-4.73,2.16-4.73,5.32,0,2.19,1.33,3.57,3.68,3.57,2.77,0,4.76-2.16,4.76-5.32Z"/>
        <path class="cls-5" d="m234.85,117.35c0-5.38,4.1-9.4,9.79-9.4,4.97,0,8.16,2.85,8.16,7.24,0,5.38-4.07,9.4-9.79,9.4-4.94,0-8.17-2.88-8.17-7.24Zm13.2-1.95c0-2.19-1.33-3.57-3.68-3.57-2.77,0-4.76,2.16-4.76,5.32,0,2.19,1.36,3.57,3.71,3.57,2.74,0,4.73-2.16,4.73-5.32Z"/>
        <path class="cls-5" d="m267.27,107.96c.17,0,.31.15.27.32l-.78,4c-.42-.03-.69-.06-1.08-.06-2.77,0-4.55,1.29-5.15,4.33l-1.45,7.23c-.07.34-.37.58-.71.58h-3.79c-.16,0-.28-.15-.25-.3l3.04-15.25c.07-.35.38-.61.74-.61h3.84l-.39,1.92c1.38-1.5,3.26-2.11,5.72-2.16Z"/>
        <path class="cls-5" d="m274.57,118.65c-.06.24-.06.45-.06.66,0,.99.54,1.56,1.72,1.56.63,0,1.3-.21,1.9-.57l.62,2.97c.05.22-.05.45-.25.55-1.11.58-2.42.77-3.71.77-3.01,0-5.06-1.68-5.06-4.5,0-.45.06-.93.15-1.41l1.3-6.52h-2.5l.61-3.04c.07-.33.36-.57.7-.57h1.92l.67-3.36c.07-.34.36-.58.71-.58h3.79c.17,0,.29.15.26.31l-.72,3.62h3.43c.31,0,.55.28.49.59l-.49,2.44c-.07.33-.36.57-.7.57h-3.18c-.15,0-.29.11-.32.26l-1.24,6.23Z"/>
      </g>
      <path class="cls-5" d="m169.77,86.43c-.08.33-.08.62-.08.91,0,1.36.74,2.14,2.35,2.14.75,0,1.52-.21,2.25-.59.18-.09.39,0,.43.19l.82,3.97c.03.13-.03.27-.15.33-1.57.9-3.47,1.21-5.33,1.21-4.12,0-6.92-2.31-6.92-6.18,0-.62.08-1.28.21-1.94l1.71-8.63c.03-.16-.09-.31-.26-.31h-1.64c-.74,0-1.27-.7-1.07-1.41l.68-2.47c.17-.63.75-1.07,1.4-1.07h1.69c.14,0,.26-.1.29-.24l.79-4c.13-.68.73-1.16,1.42-1.16h3.87c.71,0,1.25.65,1.11,1.35l-.73,3.69c-.04.18.1.36.29.36h4.8c.19,0,.33.17.29.36l-.87,4.35c-.03.14-.15.24-.29.24h-5.04c-.14,0-.26.1-.29.24l-1.73,8.66Z"/>
      <path class="cls-5" d="m178.99,91.6l1.56-2.95c.28-.53.94-.76,1.48-.48,1.87.96,4.4,1.56,6.78,1.56,3.01,0,4.33-.82,4.33-2.14,0-3.13-11.75-.54-11.75-8.04,0-4.99,4.66-7.79,11.13-7.79,2.85,0,5.7.6,7.71,1.59.28.14.38.49.24.77l-1.53,3.11c-.29.59-.99.79-1.59.51-1.8-.84-3.78-1.12-5.49-1.12-2.97,0-4.29.99-4.29,2.18,0,3.26,11.71.66,11.71,8.04,0,5.07-4.78,7.75-11.17,7.75-3.5,0-6.83-.79-8.83-1.9-.38-.21-.49-.71-.29-1.09Z"/>
      <path class="cls-5" d="m227.37,72.6l-4.05,20.35c-.13.67-.72,1.15-1.4,1.15h-4.93l.45-2.39c-1.98,1.85-4.53,2.72-7.21,2.72-4.74,0-7.95-2.64-7.95-7.54,0-.82.08-1.73.29-2.68l2.25-11.37c.11-.53.57-.92,1.11-.92h4.8c.36,0,.63.33.56.68l-2.22,11.19c-.12.58-.16,1.11-.16,1.61,0,2.23,1.19,3.46,3.71,3.46,3.17,0,5.4-1.81,6.18-5.69l2.14-10.59c.08-.38.41-.66.81-.66h5.07c.36,0,.62.33.56.68Z"/>
      <path class="cls-5" d="m244.83,81.73l7.36,12.09c.12.19-.02.44-.24.44h-6.31c-.4,0-.77-.21-.98-.55l-4.75-7.76c-.1-.16-.32-.2-.46-.08l-3.56,2.97s-.08.09-.09.16l-.92,4.57c-.08.4-.43.69-.84.69h-5c-.37,0-.65-.34-.58-.71l5.74-28.75c.13-.65.7-1.12,1.37-1.12h4.6c.35,0,.62.32.55.67l-3.2,15.99c-.03.15.15.26.26.16l9.97-8.15c.2-.17.46-.26.72-.26h7.52c.15,0,.22.19.1.28l-11.24,9.36Z"/>
      <path class="cls-5" d="m281.9,71.76h-5.04c-.41,0-.76.29-.84.69l-.45,2.32c-1.44-2.31-4-3.34-7.21-3.34-6.84,0-12.24,5.44-12.24,12.9,0,6.3,4.41,9.93,9.56,9.93,2.72,0,5.03-.91,6.8-2.51l-.41,2.18h5.4c.4,0,.75-.29.83-.68l4.14-20.82c.07-.35-.2-.67-.55-.67Zm-14.55,17.19c-3.38,0-5.32-1.9-5.32-4.9,0-4.33,2.86-7.3,6.84-7.3,3.37,0,5.32,1.9,5.32,4.9,0,4.33-2.85,7.3-6.83,7.3Z"/>
      <path class="cls-5" d="m144.07,64.22c-10.63,0-17.85,7.46-17.85,17.31,0,7.42,5.28,12.53,14.05,12.53,10.63,0,17.85-7.46,17.85-17.31,0-7.42-5.28-12.53-14.05-12.53Zm-3.02,24.64c-4.54,0-7.05-2.93-7.05-7.21,0-5.36,3.58-11.25,9.41-11.25,4.54,0,7.05,2.93,7.05,7.21,0,7.4-3.58,11.25-9.42,11.25Z"/>
    </g>
  </g>
</svg>